<svg width="15" height="17" viewBox="0 0 15 17" fill="none" xmlns="http://www.w3.org/2000/svg">
<path d="M8.56094 16.2414C7.30937 16.2414 6.325 16.0211 5.60781 15.5805C4.89062 15.1445 4.53203 14.5352 4.53203 13.7523V13.0563L5.40391 13.8227L4.11016 13.9633C3.46797 14.0336 2.93828 13.9047 2.52109 13.5766C2.10859 13.2531 1.90234 12.7586 1.90234 12.093V11.0031C1.51797 10.9187 1.225 10.7477 1.02344 10.4898C0.821874 10.232 0.721093 9.93203 0.721093 9.58984C0.721093 9.21484 0.833593 8.83047 1.05859 8.43672L1.92344 6.88984C1.91406 6.80547 1.90703 6.72109 1.90234 6.63672C1.90234 6.55234 1.90234 6.46094 1.90234 6.3625C1.90234 5.42969 2.04766 4.58125 2.33828 3.81719C2.63359 3.04844 3.05312 2.38984 3.59687 1.84141C4.14531 1.28828 4.79922 0.864062 5.55859 0.56875C6.31797 0.268749 7.15937 0.118749 8.08281 0.118749C9.01094 0.118749 9.85469 0.271093 10.6141 0.575781C11.3781 0.880468 12.0344 1.31406 12.5828 1.87656C13.1312 2.43906 13.5531 3.11172 13.8484 3.89453C14.1484 4.67734 14.2984 5.54687 14.2984 6.50312C14.2984 7.31406 14.1531 8.07344 13.8625 8.78125C13.5719 9.48437 13.1664 10.0727 12.6461 10.5461V13.7523C12.6461 14.5352 12.2805 15.1445 11.5492 15.5805C10.8227 16.0211 9.82656 16.2414 8.56094 16.2414ZM8.56094 14.9195C9.41875 14.9195 10.0914 14.7953 10.5789 14.5469C11.0711 14.2984 11.3172 13.9656 11.3172 13.5484V9.87812C11.8328 9.57344 12.2359 9.11875 12.5266 8.51406C12.8219 7.90937 12.9695 7.23906 12.9695 6.50312C12.9695 5.49062 12.7656 4.60469 12.3578 3.84531C11.95 3.08594 11.3805 2.49766 10.6492 2.08047C9.91797 1.65859 9.0625 1.44766 8.08281 1.44766C7.1125 1.44766 6.26172 1.65156 5.53047 2.05937C4.80391 2.46719 4.23672 3.03906 3.82891 3.775C3.42578 4.50625 3.22422 5.36172 3.22422 6.34141C3.22422 6.47734 3.22891 6.61328 3.23828 6.74922C3.25234 6.88516 3.27109 7.01875 3.29453 7.15L2.275 8.98516C2.17656 9.16328 2.12734 9.32734 2.12734 9.47734C2.12734 9.62266 2.17656 9.7375 2.275 9.82187C2.37344 9.90625 2.51641 9.94844 2.70391 9.94844H3.02734C3.08828 9.94844 3.13516 9.96484 3.16797 9.99766C3.20547 10.0305 3.22422 10.075 3.22422 10.1312V11.9945C3.22422 12.2383 3.28516 12.4141 3.40703 12.5219C3.53359 12.625 3.71641 12.6648 3.95547 12.6414L5.54453 12.4656C5.61953 12.4562 5.68047 12.4727 5.72734 12.5148C5.77891 12.557 5.80469 12.6156 5.80469 12.6906V13.5484C5.80469 13.9656 6.04844 14.2984 6.53594 14.5469C7.02344 14.7953 7.69844 14.9195 8.56094 14.9195ZM5.85391 7.25547C5.35234 7.25547 4.94687 7.08203 4.6375 6.73516C4.32812 6.38359 4.17344 5.94766 4.17344 5.42734C4.17344 5.22578 4.20156 5.03125 4.25781 4.84375C4.31875 4.65625 4.40312 4.48281 4.51094 4.32344C4.61406 4.49687 4.75937 4.6375 4.94687 4.74531C5.13906 4.85312 5.35703 4.90703 5.60078 4.90703C5.69453 4.90703 5.77422 4.87422 5.83984 4.80859C5.91016 4.73828 5.94531 4.65859 5.94531 4.56953C5.94531 4.48047 5.9125 4.40312 5.84687 4.3375C5.78125 4.27187 5.69922 4.23906 5.60078 4.23906C5.43203 4.23906 5.29375 4.17812 5.18594 4.05625C5.07812 3.93437 5.02422 3.78203 5.02422 3.59922C5.02422 3.31797 5.14609 3.07187 5.38984 2.86094C5.63828 2.64531 5.96172 2.5375 6.36016 2.5375C6.46797 2.5375 6.56641 2.54687 6.65547 2.56562C6.62734 2.64531 6.59922 2.72969 6.57109 2.81875C6.54766 2.90781 6.53359 3.01094 6.52891 3.12812C6.52891 3.23125 6.55703 3.31562 6.61328 3.38125C6.67422 3.44687 6.75625 3.47969 6.85937 3.47969C6.95312 3.47969 7.03047 3.44922 7.09141 3.38828C7.15703 3.32734 7.18984 3.24766 7.18984 3.14922C7.18984 2.86797 7.28828 2.64062 7.48516 2.46719C7.68672 2.29375 7.93984 2.20703 8.24453 2.20703C8.41328 2.20703 8.58437 2.24922 8.75781 2.33359C8.93594 2.41328 9.09297 2.52578 9.22891 2.67109C9.26641 2.66641 9.30859 2.66406 9.35547 2.66406C9.40234 2.65937 9.47969 2.65703 9.5875 2.65703C9.94844 2.65234 10.2578 2.77891 10.5156 3.03672C10.7734 3.28984 10.9023 3.59922 10.9023 3.96484C10.9023 4.26953 10.818 4.52969 10.6492 4.74531C10.4852 4.96094 10.2812 5.16016 10.0375 5.34297C9.79375 5.52109 9.54766 5.70625 9.29922 5.89844C9.05547 6.08594 8.84922 6.30391 8.68047 6.55234C8.51641 6.79609 8.43437 7.09141 8.43437 7.43828C8.43437 7.53672 8.44609 7.62812 8.46953 7.7125C8.38516 7.72656 8.30312 7.73828 8.22344 7.74766C8.14375 7.75234 8.06875 7.75469 7.99844 7.75469C7.81094 7.75469 7.63047 7.73594 7.45703 7.69844C7.28828 7.66094 7.13125 7.60234 6.98594 7.52266C7.21562 7.38672 7.39609 7.20391 7.52734 6.97422C7.66328 6.74453 7.73359 6.48437 7.73828 6.19375C7.73828 6.05312 7.72422 5.92891 7.69609 5.82109C8.38984 5.64297 8.73672 5.18594 8.73672 4.45C8.73672 4.36094 8.70156 4.28359 8.63125 4.21797C8.56562 4.15234 8.48594 4.11953 8.39219 4.11953C8.30312 4.11953 8.22578 4.15234 8.16016 4.21797C8.09922 4.28359 8.06875 4.36328 8.06875 4.45703C8.06875 4.90234 7.85547 5.16016 7.42891 5.23047C7.41484 5.20703 7.39844 5.17891 7.37969 5.14609C7.36094 5.11328 7.33984 5.0875 7.31641 5.06875C7.27422 5.03125 7.22969 5.00547 7.18281 4.99141C7.13594 4.97734 7.09141 4.97031 7.04922 4.97031C6.96016 4.97031 6.88281 5.00078 6.81719 5.06172C6.75625 5.12266 6.72578 5.19531 6.72578 5.27969C6.72578 5.38281 6.77734 5.48594 6.88047 5.58906C7.01641 5.72969 7.08437 5.9125 7.08437 6.1375C7.08437 6.46094 6.96953 6.72812 6.73984 6.93906C6.51016 7.15 6.21484 7.25547 5.85391 7.25547ZM10.7477 9.02031C10.5039 9.02031 10.2906 8.92891 10.1078 8.74609C9.92969 8.56328 9.81484 8.32422 9.76328 8.02891H9.67187C9.47031 8.02891 9.31328 7.97266 9.20078 7.86016C9.08828 7.74297 9.03203 7.59531 9.03203 7.41719C9.03203 7.16406 9.10937 6.94375 9.26406 6.75625C9.41875 6.56875 9.61094 6.39062 9.84062 6.22187C10.075 6.05312 10.3117 5.875 10.5508 5.6875C10.7945 5.49531 11.0055 5.275 11.1836 5.02656C11.3664 4.77344 11.4766 4.46875 11.5141 4.1125C11.7391 4.24844 11.9148 4.42891 12.0414 4.65391C12.168 4.87891 12.2312 5.12969 12.2312 5.40625C12.2312 5.71094 12.1281 5.95234 11.9219 6.13047C11.7156 6.30859 11.4437 6.38594 11.1062 6.3625C11.0172 6.34844 10.9375 6.37656 10.8672 6.44687C10.8016 6.5125 10.7687 6.59219 10.7687 6.68594C10.7687 6.775 10.7992 6.85 10.8602 6.91094C10.9211 6.97187 10.9984 7.00937 11.0922 7.02344C11.4109 7.04219 11.6945 7 11.943 6.89687C11.943 6.93906 11.943 6.98125 11.943 7.02344C11.943 7.06094 11.943 7.10078 11.943 7.14297C11.943 7.69609 11.8305 8.14844 11.6055 8.5C11.3805 8.84687 11.0945 9.02031 10.7477 9.02031Z" fill="black"/>
</svg>
