<svg width="17" height="17" viewBox="0 0 17 17" fill="none" xmlns="http://www.w3.org/2000/svg">
<path d="M7.35156 10.1797L5.73438 10.8047C5.625 10.8464 5.52604 10.8255 5.4375 10.7422C5.35417 10.6536 5.33594 10.5547 5.38281 10.4453L6.03125 8.85156L12.7109 2.17969L14.0391 3.50781L7.35156 10.1797ZM14.5938 2.95312L13.2656 1.625L13.9141 0.976562C14.0807 0.815104 14.2708 0.726562 14.4844 0.710938C14.7031 0.695312 14.888 0.760417 15.0391 0.90625L15.2578 1.125C15.4297 1.28646 15.5104 1.47917 15.5 1.70312C15.4896 1.92708 15.401 2.125 15.2344 2.29688L14.5938 2.95312ZM0.320312 7.05469C0.320312 6.11719 0.473958 5.2474 0.78125 4.44531C1.08854 3.64323 1.53125 2.94271 2.10938 2.34375C2.6875 1.74479 3.38021 1.27865 4.1875 0.945312C4.99479 0.611979 5.89844 0.445312 6.89844 0.445312C7.67448 0.445312 8.44792 0.5625 9.21875 0.796875C9.98958 1.03125 10.724 1.35677 11.4219 1.77344L10.3594 2.83594C9.8125 2.52344 9.23438 2.28125 8.625 2.10938C8.02083 1.9375 7.41146 1.85156 6.79688 1.85156C5.77083 1.85156 4.875 2.07552 4.10938 2.52344C3.34896 2.97135 2.76042 3.58333 2.34375 4.35938C1.93229 5.13542 1.72656 6.01823 1.72656 7.00781C1.72656 7.6849 1.82552 8.3724 2.02344 9.07031C2.22135 9.76302 2.52083 10.4349 2.92188 11.0859C3.32812 11.737 3.83333 12.3411 4.4375 12.8984C5.04167 13.4505 5.75 13.9297 6.5625 14.3359C7.375 14.7422 8.29427 15.0391 9.32031 15.2266C9.53385 15.2734 9.69531 15.3568 9.80469 15.4766C9.91927 15.6016 9.97656 15.7578 9.97656 15.9453C9.97656 16.0964 9.9375 16.224 9.85938 16.3281C9.78125 16.4375 9.67448 16.5156 9.53906 16.5625C9.40885 16.6094 9.26042 16.6172 9.09375 16.5859C8.22396 16.4922 7.36458 16.263 6.51562 15.8984C5.66667 15.5391 4.86979 15.0677 4.125 14.4844C3.38542 13.901 2.72917 13.2266 2.15625 12.4609C1.58333 11.6953 1.13281 10.8568 0.804688 9.94531C0.481771 9.03385 0.320312 8.07031 0.320312 7.05469ZM16.0391 9.3125C16.0391 10.2135 15.8438 11.0078 15.4531 11.6953C15.0677 12.3828 14.5312 12.9219 13.8438 13.3125C13.1615 13.6979 12.3698 13.8906 11.4688 13.8906C10.5885 13.8906 9.70052 13.7057 8.80469 13.3359C7.90885 12.9609 7.11458 12.4505 6.42188 11.8047L7.94531 11.1875C8.45573 11.6146 9.01302 11.9557 9.61719 12.2109C10.2214 12.4609 10.8177 12.5859 11.4062 12.5859C12.0052 12.5859 12.5521 12.4505 13.0469 12.1797C13.5417 11.9089 13.9349 11.5286 14.2266 11.0391C14.5234 10.5495 14.6719 9.96875 14.6719 9.29688C14.6719 8.68229 14.5651 8.07292 14.3516 7.46875C14.1432 6.86458 13.8568 6.28646 13.4922 5.73438L14.5312 4.69531C15 5.36719 15.3672 6.09375 15.6328 6.875C15.9036 7.65625 16.0391 8.46875 16.0391 9.3125Z" fill="#0D0D0D"/>
</svg>
