<svg width="14" height="17" viewBox="0 0 14 17" fill="none" xmlns="http://www.w3.org/2000/svg">
<path d="M4.42188 5.09375C4.28646 5.09375 4.17188 5.04948 4.07812 4.96094C3.98958 4.8724 3.94531 4.76042 3.94531 4.625C3.94531 4.5 3.98958 4.39323 4.07812 4.30469C4.17188 4.21615 4.28646 4.17188 4.42188 4.17188H9.92188C10.0521 4.17188 10.1615 4.21615 10.25 4.30469C10.3385 4.39323 10.3828 4.5 10.3828 4.625C10.3828 4.76042 10.3385 4.8724 10.25 4.96094C10.1615 5.04948 10.0521 5.09375 9.92188 5.09375H4.42188ZM4.42188 7.64844C4.28646 7.64844 4.17188 7.60417 4.07812 7.51562C3.98958 7.42188 3.94531 7.3099 3.94531 7.17969C3.94531 7.04948 3.98958 6.94271 4.07812 6.85938C4.17188 6.77083 4.28646 6.72656 4.42188 6.72656H9.92188C10.0521 6.72656 10.1615 6.77083 10.25 6.85938C10.3385 6.94271 10.3828 7.04948 10.3828 7.17969C10.3828 7.3099 10.3385 7.42188 10.25 7.51562C10.1615 7.60417 10.0521 7.64844 9.92188 7.64844H4.42188ZM4.42188 10.1953C4.28646 10.1953 4.17188 10.1536 4.07812 10.0703C3.98958 9.98177 3.94531 9.8724 3.94531 9.74219C3.94531 9.61198 3.98958 9.5026 4.07812 9.41406C4.17188 9.32031 4.28646 9.27344 4.42188 9.27344H7.04688C7.18229 9.27344 7.29427 9.32031 7.38281 9.41406C7.47135 9.5026 7.51562 9.61198 7.51562 9.74219C7.51562 9.8724 7.47135 9.98177 7.38281 10.0703C7.29427 10.1536 7.18229 10.1953 7.04688 10.1953H4.42188ZM0.882812 14.2578V3.07812C0.882812 2.29167 1.08073 1.70052 1.47656 1.30469C1.8724 0.903646 2.45833 0.703125 3.23438 0.703125H11.0938C11.875 0.703125 12.4609 0.903646 12.8516 1.30469C13.2474 1.70052 13.4453 2.29167 13.4453 3.07812V14.2578C13.4453 15.0443 13.2474 15.6354 12.8516 16.0312C12.4609 16.4271 11.875 16.625 11.0938 16.625H3.23438C2.45833 16.625 1.8724 16.4271 1.47656 16.0312C1.08073 15.6354 0.882812 15.0443 0.882812 14.2578ZM2.21875 14.1953C2.21875 14.5547 2.3099 14.8281 2.49219 15.0156C2.67969 15.2083 2.95833 15.3047 3.32812 15.3047H11C11.3698 15.3047 11.6484 15.2083 11.8359 15.0156C12.0234 14.8281 12.1172 14.5547 12.1172 14.1953V3.14062C12.1172 2.78125 12.0234 2.50781 11.8359 2.32031C11.6484 2.13281 11.3698 2.03906 11 2.03906H3.32812C2.95833 2.03906 2.67969 2.13281 2.49219 2.32031C2.3099 2.50781 2.21875 2.78125 2.21875 3.14062V14.1953Z" fill="#0D0D0D"/>
</svg>
