<svg width="12" height="16" viewBox="0 0 12 16" fill="none" xmlns="http://www.w3.org/2000/svg">
<path d="M1.7666 15.2617C1.35156 15.2617 1.0389 15.1566 0.828613 14.9463C0.623861 14.736 0.521484 14.4233 0.521484 14.0083V1.99707C0.521484 1.58203 0.626628 1.27214 0.836914 1.06738C1.0472 0.857096 1.3571 0.751953 1.7666 0.751953H3.75879C4.16829 0.751953 4.47819 0.854329 4.68848 1.05908C4.89876 1.26383 5.00391 1.5765 5.00391 1.99707V14.0083C5.00391 14.4233 4.89876 14.736 4.68848 14.9463C4.47819 15.1566 4.16829 15.2617 3.75879 15.2617H1.7666ZM8.24121 15.2617C7.82064 15.2617 7.50521 15.1566 7.29492 14.9463C7.09017 14.736 6.98779 14.4233 6.98779 14.0083V1.99707C6.98779 1.58203 7.09294 1.27214 7.30322 1.06738C7.51351 0.857096 7.82617 0.751953 8.24121 0.751953H10.2251C10.6401 0.751953 10.95 0.854329 11.1548 1.05908C11.3651 1.26383 11.4702 1.5765 11.4702 1.99707V14.0083C11.4702 14.4233 11.3651 14.736 11.1548 14.9463C10.95 15.1566 10.6401 15.2617 10.2251 15.2617H8.24121Z" fill="black"/>
</svg>
