<svg width="11" height="12" viewBox="0 0 11 12" fill="none" xmlns="http://www.w3.org/2000/svg">
<path d="M0.647461 10.8154V1.84668C0.647461 1.54134 0.722656 1.31803 0.873047 1.17676C1.02799 1.03092 1.21029 0.958008 1.41992 0.958008C1.60221 0.958008 1.78678 1.01042 1.97363 1.11523L9.50684 5.53125C9.75293 5.67253 9.92611 5.80241 10.0264 5.9209C10.1266 6.03483 10.1768 6.17155 10.1768 6.33105C10.1768 6.49056 10.1266 6.62956 10.0264 6.74805C9.92611 6.86198 9.75293 6.99186 9.50684 7.1377L1.97363 11.5537C1.78678 11.6585 1.60221 11.7109 1.41992 11.7109C1.21029 11.7109 1.02799 11.638 0.873047 11.4922C0.722656 11.3509 0.647461 11.1253 0.647461 10.8154Z" fill="#0D0D0D"/>
</svg>
