<svg width="16" height="16" viewBox="0 0 16 16" fill="none" xmlns="http://www.w3.org/2000/svg">
<path d="M9.42188 15.875C9.07292 15.875 8.81771 15.7526 8.65625 15.5078C8.49479 15.263 8.35938 14.9531 8.25 14.5781L6.70312 9.30469L1.375 7.74219C1.01562 7.63281 0.71875 7.5 0.484375 7.34375C0.25 7.18229 0.132812 6.92969 0.132812 6.58594C0.132812 6.30469 0.236979 6.06771 0.445312 5.875C0.658854 5.67708 0.924479 5.51823 1.24219 5.39844L14 0.515625C14.1719 0.447917 14.3307 0.398438 14.4766 0.367188C14.6224 0.330729 14.7578 0.3125 14.8828 0.3125C15.1328 0.3125 15.3307 0.385417 15.4766 0.53125C15.6276 0.677083 15.7031 0.877604 15.7031 1.13281C15.7031 1.25781 15.6849 1.39323 15.6484 1.53906C15.612 1.6849 15.5625 1.84115 15.5 2.00781L10.6328 14.7109C10.4974 15.0651 10.3307 15.3464 10.1328 15.5547C9.9349 15.7682 9.69792 15.875 9.42188 15.875ZM7.07812 8.07031L11.8672 3.28906C12.0755 3.08073 12.3229 2.85938 12.6094 2.625C12.8958 2.38542 13.1667 2.16406 13.4219 1.96094C13.1198 2.09635 12.8177 2.23698 12.5156 2.38281C12.2188 2.52344 11.9193 2.65104 11.6172 2.76562L2.21094 6.34375C2.15885 6.36458 2.125 6.38542 2.10938 6.40625C2.09375 6.42188 2.08594 6.44271 2.08594 6.46875C2.08594 6.49479 2.09375 6.51823 2.10938 6.53906C2.13021 6.55469 2.17188 6.57031 2.23438 6.58594L7.07812 8.07031ZM9.54688 13.9375C9.57292 13.9375 9.59375 13.9271 9.60938 13.9062C9.63021 13.8854 9.65104 13.8516 9.67188 13.8047L13.2422 4.39844C13.362 4.09115 13.4922 3.78646 13.6328 3.48438C13.7786 3.18229 13.9219 2.8776 14.0625 2.57031C13.8542 2.82552 13.6302 3.10156 13.3906 3.39844C13.151 3.6901 12.9271 3.9401 12.7188 4.14844L7.9375 8.92969L9.42969 13.7812C9.44531 13.8385 9.46094 13.8776 9.47656 13.8984C9.49219 13.9245 9.51562 13.9375 9.54688 13.9375Z" fill="#0D0D0D"/>
</svg>
