<svg width="14" height="4" viewBox="0 0 14 4" fill="none" xmlns="http://www.w3.org/2000/svg">
<path d="M1.75 3.10156C1.48438 3.10156 1.24219 3.03906 1.02344 2.91406C0.809896 2.78385 0.638021 2.61198 0.507812 2.39844C0.382812 2.1849 0.320312 1.94531 0.320312 1.67969C0.320312 1.41406 0.382812 1.17448 0.507812 0.960938C0.638021 0.742188 0.809896 0.570312 1.02344 0.445312C1.24219 0.315104 1.48438 0.25 1.75 0.25C2.15104 0.25 2.48958 0.390625 2.76562 0.671875C3.04688 0.947917 3.1875 1.28385 3.1875 1.67969C3.1875 1.94531 3.1224 2.1849 2.99219 2.39844C2.86719 2.61198 2.69531 2.78385 2.47656 2.91406C2.25781 3.03906 2.01562 3.10156 1.75 3.10156ZM7.14844 3.10156C6.88281 3.10156 6.64323 3.03906 6.42969 2.91406C6.21615 2.78385 6.04427 2.61198 5.91406 2.39844C5.78906 2.1849 5.72656 1.94531 5.72656 1.67969C5.72656 1.41406 5.78906 1.17448 5.91406 0.960938C6.04427 0.742188 6.21615 0.570312 6.42969 0.445312C6.64323 0.315104 6.88281 0.25 7.14844 0.25C7.53906 0.25 7.8724 0.390625 8.14844 0.671875C8.42969 0.947917 8.57031 1.28385 8.57031 1.67969C8.57031 1.94531 8.50521 2.1849 8.375 2.39844C8.24479 2.61198 8.07292 2.78385 7.85938 2.91406C7.64583 3.03906 7.40885 3.10156 7.14844 3.10156ZM12.5391 3.10156C12.2734 3.10156 12.0312 3.03906 11.8125 2.91406C11.5938 2.78385 11.4193 2.61198 11.2891 2.39844C11.1641 2.1849 11.1016 1.94531 11.1016 1.67969C11.1016 1.41406 11.1641 1.17448 11.2891 0.960938C11.4193 0.742188 11.5938 0.570312 11.8125 0.445312C12.0312 0.315104 12.2734 0.25 12.5391 0.25C12.9349 0.25 13.2708 0.390625 13.5469 0.671875C13.8281 0.947917 13.9688 1.28385 13.9688 1.67969C13.9688 1.94531 13.9036 2.1849 13.7734 2.39844C13.6484 2.61198 13.4766 2.78385 13.2578 2.91406C13.0443 3.03906 12.8047 3.10156 12.5391 3.10156Z" fill="#0D0D0D"/>
</svg>
